<svg xmlns="http://www.w3.org/2000/svg" version="1.1" xmlns:xlink="http://www.w3.org/1999/xlink" xmlns:svgjs="http://svgjs.dev/svgjs" width="1000" height="796" viewBox="0 0 1000 796"><g transform="matrix(1,0,0,1,-0.6404405979543526,0.32226720647770435)"><svg viewBox="0 0 310 247" data-background-color="#ffffff" preserveAspectRatio="xMidYMid meet" height="796" width="1000" xmlns="http://www.w3.org/2000/svg" xmlns:xlink="http://www.w3.org/1999/xlink"><g id="tight-bounds" transform="matrix(1,0,0,1,0.19853658536584362,-0.09999999999999432)"><svg viewBox="0 0 309.6029268292683 247.2" height="247.2" width="309.6029268292683"><g><svg viewBox="0 0 309.6029268292683 247.2" height="247.2" width="309.6029268292683"><g><svg viewBox="0 0 309.6029268292683 247.2" height="247.2" width="309.6029268292683"><g><svg viewBox="0 0 309.6029268292683 247.2" height="247.2" width="309.6029268292683"><g id="textblocktransform"><svg viewBox="0 0 309.6029268292683 247.2" height="247.2" width="309.6029268292683" id="textblock"><g><svg viewBox="0 0 309.6029268292683 247.2" height="247.2" width="309.6029268292683"><g transform="matrix(1,0,0,1,0,0)"><svg width="309.6029268292683" viewBox="0.5 -29.6 51.35 41" height="247.2" data-palette-color="#ffffcc"><g class="wordmark-text-0" data-fill-palette-color="primary" id="text-0"><path d="M1.9-2.7L1.9-2.7 5.25-2.4Q6.35-2.4 6.93-2.63 7.5-2.85 7.78-2.75 8.05-2.65 7.65-2.38 7.25-2.1 6.33-1.95 5.4-1.8 5.2-1.7L5.2-1.7Q6-1.4 6.95-0.85L6.95-0.85 9.6 0.8Q10.8-2 11.3-3.6L11.3-3.6Q11-3.45 10.5-3.38 10-3.3 10-3.65L10-3.65Q10-4 10.6-4.2L10.6-4.2 11.7-4.5Q12.5-6.8 13.48-10.08 14.45-13.35 14.45-13.4L14.45-13.4Q17.45-23 19.65-25.5 21.85-28 23.7-28.75 25.55-29.5 26.5-29.5L26.5-29.5Q29.15-29.5 30.7-27.4L30.7-27.4Q31.75-25.95 31.75-23.75L31.75-23.75Q31.75-19.6 28.93-15.5 26.1-11.4 22.1-8.58 18.1-5.75 13.8-4.25L13.8-4.25Q12.3-0.7 10.95 1.6L10.95 1.6Q18.6 6.5 21.8 7.55L21.8 7.55Q25.5 8.8 28.85 8.8L28.85 8.8Q32.5 8.8 34.9 6.8L34.9 6.8Q36.15 5.8 36.15 4.7 36.15 3.6 35.73 2.75 35.3 1.9 35.8 1.83 36.3 1.75 36.6 2.35L36.6 2.35Q37.35 4 37.35 5.75L37.35 5.75Q37.35 6.05 37.35 6.35L37.35 6.35Q37.3 8.25 35.6 9.7L35.6 9.7Q33.6 11.4 29.45 11.4L29.45 11.4Q26.65 11.4 24.53 10.65 22.4 9.9 21.18 9.43 19.95 8.95 18.13 7.78 16.3 6.6 15.55 6.1L15.55 6.1Q14.05 5.1 10.45 2.4L10.45 2.4Q7.85 6.9 5.85 6.9L5.85 6.9Q5.35 6.9 5.25 6.73 5.15 6.55 5.28 6.4 5.4 6.25 5.55 6.25L5.55 6.25Q7.2 6.1 9.25 1.6L9.25 1.6Q6.45-0.25 4.55-0.9L4.55-0.9Q2.85-0.2 2.2-0.2 1.55-0.2 1.35-0.25L1.35-0.25Q0.5-0.55 0.5-1.3L0.5-1.3Q0.5-2.35 1.8-2.7L1.8-2.7Q1.8-2.7 1.9-2.7ZM29.7-24.7L29.7-24.7Q29.7-28.5 26.85-28.5L26.85-28.5Q24.3-28.5 22.5-25.9L22.5-25.9Q20.5-23.1 19.6-20.68 18.7-18.25 18.3-17.1L18.3-17.1Q17.3-14.3 16.75-12L16.75-12Q15.1-7.4 14.35-5.65L14.35-5.65Q20.1-8.25 24.28-12.7 28.45-17.15 29.5-22.75L29.5-22.75Q29.7-23.8 29.7-24.7ZM44.85-29.25L44.85-29.25Q45.75-29.6 46.4-29.6L46.4-29.6Q48.6-29.6 49.3-28.4L49.3-28.4Q49.7-27.8 49.7-27.35L49.7-27.35Q49.7-23.95 44-18.8L44-18.8Q38.95-14.35 34.7-11.15L34.7-11.15Q33.3-8 31.8-3.4L31.8-3.4Q33.6-5.6 36.35-8.5L36.35-8.5Q41.9-14.25 44.1-14.25L44.1-14.25Q45.2-14.25 45.25-13.15L45.25-13.15Q45.35-12 44.77-10.95 44.2-9.9 43.7-9L43.7-9Q41.35-5.1 41.35-2.05L41.35-2.05Q41.35-1.05 41.75-0.6L41.75-0.6Q42.45 0.2 43.75-0.5 45.05-1.2 47.37-3.3 49.7-5.4 51.15-7.4L51.15-7.4Q51.4-7.65 51.62-7.53 51.85-7.4 51.85-7.28 51.85-7.15 51.75-7L51.75-7Q51-5.65 49.05-3.58 47.1-1.5 45.9-0.6L45.9-0.6Q43.6 1.15 41.5 1.15L41.5 1.15Q39.6 1.15 38.95-0.75L38.95-0.75Q38.8-1.2 38.8-1.83 38.8-2.45 38.9-3.15L38.9-3.15Q39.15-5.25 41.55-9.7L41.55-9.7Q42.05-10.6 42.05-10.98 42.05-11.35 41.65-11.35L41.65-11.35Q40.85-11.35 38.55-9.35L38.55-9.35Q37-7.9 33.97-3.88 30.95 0.15 30.55 0.4L30.55 0.4Q28.75 1.3 28.32 1.3 27.9 1.3 27.85 1.18 27.8 1.05 27.9 0.85 28 0.65 28.7-1.35L28.7-1.35Q31.05-8 31.9-10.15L31.9-10.15Q30.25-8.05 27.8-5.4L27.8-5.4Q27.4-5 27.4-5.58 27.4-6.15 27.85-6.75 28.3-7.35 29.72-9.08 31.15-10.8 31.75-11.65L31.75-11.65Q31.3-11.9 31.27-12.35 31.25-12.8 31.57-12.98 31.9-13.15 32.65-12.85L32.65-12.85Q33.15-13.55 33.55-14.4L33.55-14.4Q39.5-27.2 44.85-29.25ZM47.65-25.5L47.65-25.5Q48.3-26.7 48.3-27.53 48.3-28.35 47.57-28.35 46.85-28.35 45.65-27.45L45.65-27.45Q40.15-23.25 35.7-13.4L35.7-13.4Q38.95-15.5 42.5-19 46.05-22.5 47.65-25.5Z" fill="#ffffcc" data-fill-palette-color="primary"></path></g></svg></g></svg></g></svg></g></svg></g></svg></g></svg></g><defs></defs></svg><rect width="309.6029268292683" height="247.2" fill="none" stroke="none" visibility="hidden"></rect></g></svg></g></svg>